# xmcd
# Track frame offsets:
# 150
# 15885
# 35403
# 54909
# 68073
# 82009
# 108886
# 127038
# 141664
# 161936
# 175729
# 197055
# 212168
# 228823
#
# Disc length: 3571 seconds
# Revision: 0
# Processed by: cddbd v1.4PL0 Copyright (c) Steve Scherf et al.
# Submitted via: VisiTrax 2.9.5.180 - For more info visit www.synapsa.com
#
DISCID=bd0df10e
DTITLE=Emmylou Harris - Spyboy
DYEAR=1998
DGENRE=Country
TTITLE0=My Songbird
TTITLE1=Where I Will Be
TTITLE2=I Ain't Living Long Like This
TTITLE3=Love Hurts
TTITLE4=Green Pastures
TTITLE5=Deeper Well
TTITLE6=Prayer in Open D
TTITLE7=Calling My Children Home
TTITLE8=Tulsa Queen
TTITLE9=Wheels
TTITLE10=Born To Run
TTITLE11=Boulder To Birmingham
TTITLE12=All My Tears
TTITLE13=The Maker
EXTD=
EXTT0=
EXTT1=
EXTT2=
EXTT3=
EXTT4=
EXTT5=
EXTT6=
EXTT7=
EXTT8=
EXTT9=
EXTT10=
EXTT11=
EXTT12=
EXTT13=
PLAYORDER=
